HIERARCHY
ROOT Hips
{
	OFFSET 0.000000 0.000000 0.000000 
	CHANNELS 6 Xposition Yposition Zposition Zrotation Yrotation Xrotation
	JOINT LeftUpLeg
	{
		OFFSET 1.363060 -1.794630 0.839290 
		CHANNELS 3 Zrotation Yrotation Xrotation
		JOINT LeftLeg
		{
			OFFSET 2.448110 -6.726130 0.000000 
			CHANNELS 3 Zrotation Yrotation Xrotation
			JOINT LeftFoot
			{
				OFFSET 2.562200 -7.039590 0.000000 
				CHANNELS 3 Zrotation Yrotation Xrotation
				JOINT LeftToeBase
				{
					OFFSET 0.157640 -0.433110 2.322550 
					CHANNELS 3 Zrotation Yrotation Xrotation
					End Site
					{
						OFFSET 0.000000 0.000000 0.000000 
					}
				}
			}
		}
	}
	JOINT RightUpLeg
	{
		OFFSET -1.305520 -1.794630 0.839290 
		CHANNELS 3 Zrotation Yrotation Xrotation
		JOINT RightLeg
		{
			OFFSET -2.542530 -6.985550 0.000000 
			CHANNELS 3 Zrotation Yrotation Xrotation
			JOINT RightFoot
			{
				OFFSET -2.568260 -7.056230 0.000000 
				CHANNELS 3 Zrotation Yrotation Xrotation
				JOINT RightToeBase
				{
					OFFSET -0.164730 -0.452590 2.363150 
					CHANNELS 3 Zrotation Yrotation Xrotation
					End Site
					{
						OFFSET 0.000000 0.000000 0.000000 
					}
				}
			}
		}
	}
	JOINT Spine
	{
		OFFSET 0.028270 2.035590 -0.193380 
		CHANNELS 3 Zrotation Yrotation Xrotation
		JOINT Spine1
		{
			OFFSET 0.056720 2.048850 -0.042750 
			CHANNELS 3 Zrotation Yrotation Xrotation
			JOINT Neck1
			{
				OFFSET -0.054170 1.746240 0.172020 
				CHANNELS 3 Zrotation Yrotation Xrotation
				JOINT Head
				{
					OFFSET 0.104070 1.761360 -0.123970 
					CHANNELS 3 Zrotation Yrotation Xrotation
					End Site
					{
						OFFSET 0.000000 0.000000 0.000000 
					}
				}
			}
			JOINT LeftArm
			{
				OFFSET 3.362410 1.200890 -0.311210 
				CHANNELS 3 Zrotation Yrotation Xrotation
				JOINT LeftForeArm
				{
					OFFSET 4.983000 -0.000000 -0.000000 
					CHANNELS 3 Zrotation Yrotation Xrotation
					JOINT LeftHand
					{
						OFFSET 3.483560 -0.000000 -0.000000 
						CHANNELS 3 Zrotation Yrotation Xrotation
						JOINT LeftHandIndex1
						{
							OFFSET 0.715260 -0.000000 -0.000000 
							CHANNELS 3 Zrotation Yrotation Xrotation
							End Site
							{
								OFFSET 0.000000 0.000000 0.000000 
							}
						}
					}
				}
			}
			JOINT RightArm
			{
				OFFSET -3.136600 1.374050 -0.404650 
				CHANNELS 3 Zrotation Yrotation Xrotation
				JOINT RightForeArm
				{
					OFFSET -5.241900 -0.000000 -0.000000 
					CHANNELS 3 Zrotation Yrotation Xrotation
					JOINT RightHand
					{
						OFFSET -3.444170 -0.000000 -0.000000 
						CHANNELS 3 Zrotation Yrotation Xrotation
						JOINT RightHandIndex1
						{
							OFFSET -0.622530 -0.000000 -0.000000 
							CHANNELS 3 Zrotation Yrotation Xrotation
							End Site
							{
								OFFSET 0.000000 0.000000 0.000000 
							}
						}
					}
				}
			}
		}
	}
}
MOTION
Frames: 13
Frame Time: 0.041667
10.006649 17.935319 0.306999 15.790157 -84.368686 -6.157897 -12.474470 -5.557679 -18.274309 0.187013 7.492351 22.600225 -4.426887 18.352929 -4.220498 0.645800 -5.140800 -14.310700 18.156298 10.885210 -16.591728 -1.544164 -9.161807 28.432950 -0.678913 0.715779 -9.687374 -0.188400 -2.795400 7.709700 1.852371 0.585709 -0.911959 2.173098 0.818415 -0.461619 1.682966 8.825862 16.323635 3.187000 3.186200 11.032300 -79.371026 -3.156842 36.847895 12.110135 -22.989851 -2.864738 -0.109524 -1.479370 9.609469 -7.125000 0.000000 0.000000 73.498057 -11.145952 5.870261 -15.578757 22.936109 -3.956080 0.735707 -0.465382 17.191781 7.125000 0.000000 0.000000 
10.003531 17.934514 0.304384 15.861931 -84.462063 -6.125286 -12.467805 -5.547494 -18.383567 0.194745 7.506428 22.628661 -4.466218 18.493624 -4.184203 0.676900 -5.261000 -14.654400 18.161596 10.829216 -16.764646 -1.548048 -9.170626 28.452716 -0.684721 0.794300 -9.544124 -0.174300 -2.689200 7.414600 1.824810 0.709900 -0.962377 1.984545 0.887237 -0.514030 1.393349 8.694529 16.851987 3.060400 3.064700 11.281100 -79.417897 -2.957717 37.069632 12.032173 -22.873731 -2.808457 -0.149833 -1.502063 9.701581 -7.125000 0.000000 0.000000 73.551599 -11.245299 5.954092 -15.556265 22.916255 -3.946523 0.701468 -0.470461 17.151585 7.125000 0.000000 0.000000 
9.996791 17.934011 0.292313 15.865216 -84.451398 -6.180955 -12.414341 -5.568613 -18.281447 0.189881 7.493660 22.601989 -4.453342 18.441041 -4.221362 0.647500 -5.147300 -14.329200 18.228017 10.849913 -16.693942 -1.560753 -9.189023 28.516518 -0.692065 0.794149 -9.655537 -0.202700 -2.898700 7.996800 1.828189 0.780778 -0.951125 1.940647 0.927644 -0.532748 1.058972 8.664726 17.359141 2.896900 2.999400 11.506300 -79.567944 -2.832255 36.812696 11.856836 -22.607277 -2.726908 -0.175306 -1.496048 10.165614 -7.125000 0.000000 0.000000 73.626003 -11.302308 5.983803 -15.580005 22.945659 -3.955622 0.679084 -0.467572 17.293470 7.125000 0.000000 0.000000 
9.992667 17.936325 0.281450 16.558499 -84.366809 -6.974470 -12.444193 -5.590583 -18.180409 0.196975 7.504827 22.646924 -4.418381 18.320084 -4.184986 0.657700 -5.187200 -14.443100 18.237610 10.676906 -16.625800 -1.564382 -9.193243 28.532428 -0.701280 0.818881 -9.705085 -0.250000 -3.217500 8.884900 1.825972 0.785868 -0.925688 1.905561 0.928435 -0.561874 1.159938 8.525136 17.703587 2.951100 2.908100 11.636900 -79.796852 -2.697479 36.727386 11.730397 -22.409242 -2.660114 -0.196097 -1.505666 10.326505 -7.125000 0.000000 0.000000 73.598860 -11.299353 6.307902 -15.575146 22.938919 -3.951009 0.677069 -0.461532 17.371191 7.125000 0.000000 0.000000 
9.992768 17.936124 0.274710 18.009284 -84.307373 -8.459466 -12.565753 -5.572279 -18.182004 0.207660 7.523518 22.696299 -4.419065 18.335663 -4.022562 0.721500 -5.427800 -15.132800 18.136639 10.555641 -16.617732 -1.560138 -9.186863 28.510860 -0.694948 0.797298 -9.660623 -0.226900 -3.066100 8.463000 1.800442 0.808888 -0.927904 1.842425 0.936339 -0.612470 1.479780 8.269616 17.994123 3.108200 2.774800 11.726400 -79.918215 -2.511757 37.067130 11.681829 -22.333165 -2.598065 -0.275522 -1.546047 10.093757 -7.125000 0.000000 0.000000 73.521039 -11.310370 6.821441 -15.555041 22.920177 -3.940284 0.661617 -0.456396 17.352302 7.125000 0.000000 0.000000 
9.990555 17.934011 0.266361 18.441308 -84.354588 -8.897167 -12.561515 -5.491379 -18.236059 0.217250 7.543339 22.747819 -4.406336 18.290880 -3.976200 0.700000 -5.348100 -14.904100 18.116529 10.739804 -16.516762 -1.553256 -9.172590 28.476489 -0.673153 0.663171 -9.743927 -0.169700 -2.654100 7.317200 1.770971 0.867252 -0.945885 1.725877 0.964837 -0.655016 1.700679 8.090022 18.354425 3.194500 2.683500 11.834000 -79.981244 -2.353382 36.980591 11.574616 -22.172856 -2.590930 -0.175389 -1.518708 10.316684 -7.125000 0.000000 0.000000 73.522774 -11.341330 7.316556 -15.552458 22.921522 -3.936874 0.640482 -0.451608 17.367091 7.125000 0.000000 0.000000 
9.984821 17.936023 0.257006 18.809334 -84.423869 -9.217424 -12.543779 -5.395236 -18.350335 0.232611 7.576657 22.839844 -4.383685 18.209621 -3.981224 0.664300 -5.212600 -14.515800 18.085176 10.997965 -16.435010 -1.541626 -9.149772 28.413752 -0.669795 0.630498 -9.798662 -0.178600 -2.721900 7.505500 1.764731 0.913024 -0.986326 1.680817 0.991250 -0.681546 1.666851 7.952294 18.797936 3.143400 2.599400 11.982200 -80.125061 -2.210659 36.461852 11.420249 -21.935302 -2.537149 -0.154298 -1.504294 10.739644 -7.125000 0.000000 0.000000 73.512443 -11.331050 7.591984 -15.521839 22.884033 -3.922506 0.632474 -0.457812 17.599128 7.125000 0.000000 0.000000 
9.976371 17.936828 0.251172 19.940106 -84.476548 -10.334464 -12.616466 -5.232701 -18.436180 0.248647 7.613246 22.955163 -4.321430 17.992345 -4.034998 0.612500 -5.009100 -13.934600 18.018541 11.002226 -16.397722 -1.529357 -9.129510 28.351117 -0.658341 0.595654 -9.731405 -0.160400 -2.580800 7.113700 1.739559 0.956528 -1.007743 1.634651 1.015793 -0.670649 1.636388 7.735893 19.284653 3.084000 2.478500 12.155800 -80.177393 -2.076547 36.259076 11.271518 -21.708063 -2.450376 -0.222801 -1.518824 10.712021 -7.125000 0.000000 0.000000 73.498006 -11.305470 7.812297 -15.493569 22.850306 -3.911591 0.631149 -0.477079 17.850690 7.125000 0.000000 0.000000 
9.966111 17.933206 0.244030 20.541301 -84.492679 -10.993102 -12.662795 -5.025795 -18.462900 0.266166 7.645103 23.052894 -4.271559 17.816800 -3.957261 0.627600 -5.069300 -14.106400 18.041605 10.835599 -16.336488 -1.524419 -9.120306 28.325744 -0.643567 0.539279 -9.682212 -0.119600 -2.229500 6.140200 1.713809 0.965577 -0.977593 1.547785 1.018911 -0.575937 1.809327 7.493524 19.874071 3.137200 2.345600 12.383400 -80.248091 -1.972426 36.113311 11.151207 -21.523590 -2.425592 -0.158546 -1.498625 10.578563 -7.125000 0.000000 0.000000 73.480751 -11.182809 8.155401 -15.452881 22.799871 -3.893252 0.619944 -0.489514 18.036477 7.125000 0.000000 0.000000 
9.960277 17.932301 0.231658 20.575137 -84.468766 -11.092576 -12.673463 -4.680964 -18.565764 0.287358 7.676530 23.134373 -4.207862 17.587149 -3.575488 0.714600 -5.402200 -15.059300 18.092536 10.753669 -16.276492 -1.528677 -9.123216 28.341625 -0.660200 0.622053 -9.681353 -0.127900 -2.305400 6.350300 1.759558 0.932194 -0.979515 1.603041 1.000039 -0.576540 1.962938 7.279331 20.434184 3.203800 2.209500 12.569300 -80.508788 -1.823210 35.679557 11.038799 -21.342808 -2.377974 -0.153291 -1.501030 10.598778 -7.125000 0.000000 0.000000 73.354644 -11.070785 8.383796 -15.460666 22.812755 -3.896416 0.591322 -0.488498 18.478277 7.125000 0.000000 0.000000 
9.959070 17.933508 0.217877 20.416340 -84.390498 -10.996800 -12.681547 -4.270604 -18.736461 0.310014 7.709912 23.215846 -4.119782 17.272385 -3.055446 0.815900 -5.763700 -16.100500 18.140690 10.711543 -16.223544 -1.537036 -9.132264 28.377520 -0.680531 0.713173 -9.709143 -0.146900 -2.469800 6.805800 1.863943 0.856551 -1.013439 1.806741 0.961501 -0.657557 2.005960 7.080578 20.923467 3.219100 2.072800 12.709500 -80.825559 -1.596785 35.120283 10.966713 -21.228027 -2.370260 -0.111348 -1.474331 10.760451 -7.125000 0.000000 0.000000 73.135988 -10.998256 8.594415 -15.519478 22.891864 -3.923552 0.566707 -0.484274 18.828518 7.125000 0.000000 0.000000 
9.959070 17.934212 0.207315 21.181865 -84.203997 -11.761328 -12.782928 -4.118168 -18.869708 0.320080 7.727450 23.253214 -4.062563 17.081337 -2.668034 0.890200 -6.013900 -16.824700 18.058893 10.678290 -16.250180 -1.548711 -9.151716 28.438199 -0.683093 0.684455 -9.812676 -0.154100 -2.529900 6.972400 1.923816 0.728042 -1.067957 1.976711 0.896919 -0.745003 2.209072 6.813740 21.567099 3.292500 1.918900 12.959200 -81.063996 -1.325015 34.964213 10.962460 -21.222069 -2.366765 -0.106388 -1.480431 10.404469 -7.125000 0.000000 0.000000 72.847493 -10.870613 9.089808 -15.546121 22.929086 -3.933379 0.558305 -0.464682 18.714424 7.125000 0.000000 0.000000 
9.957259 17.931295 0.196451 22.385775 -84.048240 -12.923147 -12.879176 -4.266740 -18.882811 0.319747 7.730317 23.254489 -4.070208 17.123589 -2.560454 0.918200 -6.105100 -17.089700 17.936691 10.740764 -16.296276 -1.562717 -9.176113 28.513687 -0.675913 0.587492 -9.972977 -0.154900 -2.535900 6.989200 1.941411 0.624927 -1.117615 2.115290 0.843042 -0.787021 2.573377 6.395276 22.185958 3.419800 1.718200 13.215000 -81.216348 -1.156651 34.929998 10.923456 -21.159308 -2.327471 -0.141695 -1.511592 9.975915 -7.125000 0.000000 0.000000 72.658267 -10.711789 9.536689 -15.591098 22.982901 -3.950289 0.556259 -0.448468 18.555246 7.125000 0.000000 0.000000 
